<svg width="100" height="100" viewBox="0 0 100 100" fill="none" xmlns="http://www.w3.org/2000/svg">
<g clip-path="url(#clip0_10_9)">
<path d="M100 50C100 22.3858 77.6142 0 50 0C22.3858 0 0 22.3858 0 50C0 77.6142 22.3858 100 50 100C77.6142 100 100 77.6142 100 50Z" fill="#2176FF"/>
<g clip-path="url(#clip1_10_9)">
<path d="M88.9945 54.8892C90.2787 53.5925 91 51.8349 91 50.0023C91 48.1697 90.2787 46.4121 88.9945 45.1154L63.1377 19.0261C61.8513 17.7288 60.1066 17 58.2873 17C56.468 17 54.7233 17.7288 53.4369 19.0261C52.1504 20.3234 51.4277 22.0829 51.4277 23.9176C51.4277 25.7522 52.1504 27.5117 53.4369 28.809L67.5904 43.0869L14.8574 43.0869C13.0387 43.0869 11.2945 43.8155 10.0085 45.1124C8.72247 46.4093 8 48.1682 8 50.0023C8 51.8364 8.72247 53.5953 10.0085 54.8922C11.2945 56.1891 13.0387 56.9177 14.8574 56.9177L67.5904 56.9177L53.4368 71.191C52.7999 71.8333 52.2946 72.5959 51.9499 73.4352C51.6052 74.2745 51.4277 75.174 51.4277 76.0824C51.4277 76.9909 51.6052 77.8904 51.9499 78.7297C52.2946 79.5689 52.7999 80.3315 53.4368 80.9739C54.0738 81.6162 54.83 82.1258 55.6622 82.4734C56.4945 82.8211 57.3865 83 58.2873 83C59.1881 83 60.0801 82.8211 60.9123 82.4734C61.7446 82.1258 62.5008 81.6162 63.1377 80.9739L88.9945 54.8892Z" fill="white"/>
</g>
</g>
<defs>
<clipPath id="clip0_10_9">
<rect width="100" height="100" fill="white"/>
</clipPath>
<clipPath id="clip1_10_9">
<rect width="100" height="100" fill="white" transform="translate(100) rotate(90)"/>
</clipPath>
</defs>
</svg>
