<svg width="100" height="100" viewBox="0 0 100 100" fill="none" xmlns="http://www.w3.org/2000/svg">
<rect width="100" height="100" rx="50" fill="#2176FF"/>
<path d="M13 46C10.7909 46 9 47.7909 9 50C9 52.2091 10.7909 54 13 54V46ZM90.8284 52.8284C92.3905 51.2663 92.3905 48.7337 90.8284 47.1716L65.3726 21.7157C63.8105 20.1536 61.2778 20.1536 59.7157 21.7157C58.1536 23.2778 58.1536 25.8105 59.7157 27.3726L82.3431 50L59.7157 72.6274C58.1536 74.1895 58.1536 76.7222 59.7157 78.2843C61.2778 79.8464 63.8105 79.8464 65.3726 78.2843L90.8284 52.8284ZM13 50V54H88V50V46H13V50Z" fill="white"/>
</svg>
