<svg width="529" height="529" viewBox="0 0 529 529" fill="none" xmlns="http://www.w3.org/2000/svg">
<path fill-rule="evenodd" clip-rule="evenodd" d="M529 264.5C529 410.58 410.58 529 264.5 529C118.42 529 0 410.58 0 264.5C0 118.42 118.42 0 264.5 0C410.58 0 529 118.42 529 264.5ZM109.949 138L110.949 140C110.678 140.742 110.525 141.158 110.352 141.564C110.131 142.08 109.873 142.58 109.289 143.719L108.143 146.014L106.887 148.5C86.3262 190.789 84.1836 241.061 99.0859 285.549C115.76 332.865 148.736 370.967 193.949 393L192.762 389.562C191.361 385.33 190.025 381.084 188.754 376.818C187.781 373.559 186.846 370.287 185.949 367L184.961 363.434C177.018 329.137 185.354 293.777 202.949 264C204.369 261.793 205.852 259.668 207.398 257.584C208.193 256.514 209.006 255.455 209.836 254.4C210.203 253.932 210.574 253.465 210.949 253L212.191 251.439C234.127 224.023 266.387 205.184 301.514 201.191C321.967 199.582 341.396 200.379 360.949 207L363.482 207.842C397.326 219.367 425.258 244.422 441.127 276.371C454.66 305.143 459.588 338.148 451.324 369.188L450.523 372.215C448.131 380.918 444.967 388.932 440.949 397L439.266 400.445C433.668 411.383 426.369 420.73 418.039 429.715C417.299 430.523 416.568 431.344 415.855 432.178C415.359 432.758 414.869 433.346 414.391 433.941C404.764 445.92 390.916 454.982 377.949 463L376.125 464.139C352.291 478.828 324.598 488.002 296.949 492L294.889 492.309C275.332 495.125 254.393 495.762 234.949 492L232.395 491.543C202.305 486.141 173.018 475.84 147.949 458L146.133 456.74C142.688 454.348 139.359 451.879 136.125 449.311C131.543 445.674 127.145 441.836 122.852 437.727C120.857 435.852 118.889 434.096 116.777 432.367C114.531 430.486 112.645 428.721 110.762 426.5L108.988 424.41L106.949 422L104.41 419.121C81.3477 392.805 64.1484 358.494 57.9492 324L57.4023 320.979C47.3496 263.473 59.6816 206.443 92.9805 158.461C98.1289 151.25 103.676 144.273 109.949 138ZM299.625 81.2676L295.926 81.209C286.418 80.9062 276.996 80.7559 267.547 82.0293C230.039 87.8398 195.732 107.6 172.645 137.877L170.926 140.209C169.146 142.525 167.43 144.857 165.777 147.268C146.369 178.098 136.742 217.113 144.926 253.209C146.033 251.1 147 249.016 147.852 246.789C158.807 215.938 174.199 190.732 197.967 168.045C231.592 136.5 277.49 119.904 323.41 121.057L327.926 121.209C353.953 121.613 379.363 130.039 402.508 141.486L405.926 143.209L406.926 141.209C402.363 135.254 397.645 129.656 392.266 124.424L389.926 122.209C365.65 99.2129 333.621 82.5957 299.625 81.2676Z" fill="#2176ff"/>
</svg>
